<svg width="41" height="22" viewBox="0 0 41 22" fill="none" xmlns="http://www.w3.org/2000/svg">
<path d="M21.3583 7.33333C19.855 3.06167 15.785 0 11 0C4.93167 0 0 4.93167 0 11C0 17.0683 4.93167 22 11 22C15.785 22 19.855 18.9383 21.3583 14.6667H29.3333V22H36.6667V14.6667H40.3333V7.33333H21.3583ZM11 14.6667C8.98333 14.6667 7.33333 13.0167 7.33333 11C7.33333 8.98333 8.98333 7.33333 11 7.33333C13.0167 7.33333 14.6667 8.98333 14.6667 11C14.6667 13.0167 13.0167 14.6667 11 14.6667Z" fill="#7D5260"/>
</svg>
