<svg width="63" height="63" viewBox="0 0 63 63" fill="none" xmlns="http://www.w3.org/2000/svg">
<path d="M31.5 0.25C14.25 0.25 0.25 14.25 0.25 31.5C0.25 48.75 14.25 62.75 31.5 62.75C48.75 62.75 62.75 48.75 62.75 31.5C62.75 14.25 48.75 0.25 31.5 0.25ZM31.5 9.625C36.6875 9.625 40.875 13.8125 40.875 19C40.875 24.1875 36.6875 28.375 31.5 28.375C26.3125 28.375 22.125 24.1875 22.125 19C22.125 13.8125 26.3125 9.625 31.5 9.625ZM31.5 54C23.6875 54 16.7812 50 12.75 43.9375C12.8438 37.7188 25.25 34.3125 31.5 34.3125C37.7188 34.3125 50.1562 37.7188 50.25 43.9375C46.2188 50 39.3125 54 31.5 54Z" fill="#7D5260"/>
</svg>
