<svg width="20" height="15" viewBox="0 0 20 15" fill="none" xmlns="http://www.w3.org/2000/svg">
<path d="M10 0.681885C5.45455 0.681885 1.57273 3.50916 0 7.50007C1.57273 11.491 5.45455 14.3182 10 14.3182C14.5455 14.3182 18.4273 11.491 20 7.50007C18.4273 3.50916 14.5455 0.681885 10 0.681885ZM10 12.0455C7.49091 12.0455 5.45455 10.0092 5.45455 7.50007C5.45455 4.99098 7.49091 2.95461 10 2.95461C12.5091 2.95461 14.5455 4.99098 14.5455 7.50007C14.5455 10.0092 12.5091 12.0455 10 12.0455ZM10 4.77279C8.49091 4.77279 7.27273 5.99098 7.27273 7.50007C7.27273 9.00916 8.49091 10.2273 10 10.2273C11.5091 10.2273 12.7273 9.00916 12.7273 7.50007C12.7273 5.99098 11.5091 4.77279 10 4.77279Z" fill="#31111D"/>
</svg>
